<svg width="1200" height="40" viewBox="0 0 1200 40" xmlns="http://www.w3.org/2000/svg">
  <line x1="0" y1="20" x2="1200" y2="20" stroke="#1c2531" stroke-width="1"/>
  <g font-family="monospace">
    <g stroke="#3a4552" stroke-width="1">
      <line x1="40" y1="8" x2="40" y2="32"/><line x1="90" y1="8" x2="90" y2="32"/>
      <line x1="140" y1="8" x2="140" y2="32"/><line x1="190" y1="8" x2="190" y2="32"/>
      <line x1="240" y1="8" x2="240" y2="32"/><line x1="290" y1="8" x2="290" y2="32"/>
      <line x1="340" y1="8" x2="340" y2="32"/><line x1="390" y1="8" x2="390" y2="32"/>
      <line x1="440" y1="8" x2="440" y2="32"/><line x1="490" y1="8" x2="490" y2="32"/>
      <line x1="540" y1="8" x2="540" y2="32"/><line x1="590" y1="8" x2="590" y2="32"/>
      <line x1="640" y1="8" x2="640" y2="32"/><line x1="690" y1="8" x2="690" y2="32"/>
      <line x1="740" y1="8" x2="740" y2="32"/><line x1="790" y1="8" x2="790" y2="32"/>
      <line x1="840" y1="8" x2="840" y2="32"/><line x1="890" y1="8" x2="890" y2="32"/>
      <line x1="940" y1="8" x2="940" y2="32"/><line x1="990" y1="8" x2="990" y2="32"/>
      <line x1="1040" y1="8" x2="1040" y2="32"/><line x1="1090" y1="8" x2="1090" y2="32"/>
      <line x1="1140" y1="8" x2="1140" y2="32"/>
    </g>
    <g>
      <rect x="35" y="14" width="10" height="12" fill="#2ee6a6"/>
      <rect x="85" y="16" width="10" height="8"  fill="#ff5c73"/>
      <rect x="135" y="12" width="10" height="16" fill="#2ee6a6"/>
      <rect x="185" y="15" width="10" height="10" fill="#2ee6a6"/>
      <rect x="235" y="17" width="10" height="6"  fill="#ff5c73"/>
      <rect x="285" y="13" width="10" height="14" fill="#2ee6a6"/>
      <rect x="335" y="16" width="10" height="8"  fill="#ff5c73"/>
      <rect x="385" y="14" width="10" height="12" fill="#2ee6a6"/>
      <rect x="435" y="15" width="10" height="10" fill="#2ee6a6"/>
      <rect x="485" y="17" width="10" height="6"  fill="#ff5c73"/>
      <rect x="535" y="13" width="10" height="14" fill="#2ee6a6"/>
      <rect x="585" y="16" width="10" height="8"  fill="#ff5c73"/>
      <rect x="635" y="14" width="10" height="12" fill="#2ee6a6"/>
      <rect x="685" y="15" width="10" height="10" fill="#2ee6a6"/>
      <rect x="735" y="17" width="10" height="6"  fill="#ff5c73"/>
      <rect x="785" y="13" width="10" height="14" fill="#2ee6a6"/>
      <rect x="835" y="16" width="10" height="8"  fill="#ff5c73"/>
      <rect x="885" y="14" width="10" height="12" fill="#2ee6a6"/>
      <rect x="935" y="15" width="10" height="10" fill="#2ee6a6"/>
      <rect x="985" y="17" width="10" height="6"  fill="#ff5c73"/>
      <rect x="1035" y="13" width="10" height="14" fill="#2ee6a6"/>
      <rect x="1085" y="16" width="10" height="8"  fill="#ff5c73"/>
      <rect x="1135" y="14" width="10" height="12" fill="#2ee6a6"/>
    </g>
  </g>
</svg>
