<svg width="820" height="60" viewBox="0 0 820 60" xmlns="http://www.w3.org/2000/svg">
  <defs>
    <clipPath id="f1"><rect x="4" y="4" width="182" height="48" rx="24"/></clipPath>
    <clipPath id="f2"><rect x="204" y="4" width="152" height="48" rx="24"/></clipPath>
    <clipPath id="f3"><rect x="374" y="4" width="182" height="48" rx="24"/></clipPath>
    <clipPath id="f4"><rect x="574" y="4" width="152" height="48" rx="24"/></clipPath>
  </defs>
  <style>
    .pill{fill:#101826;stroke:#22304a;stroke-width:1.2;}
    .lbl{font-family:'Inter','Segoe UI',sans-serif;font-size:15px;font-weight:600;fill:#e8edf5;}
    .flow{stroke:#4DA6FF;stroke-width:1.4;opacity:0.55;}
  </style>

  <rect class="pill" x="4" y="4" width="182" height="48" rx="24"/>
  <g clip-path="url(#f1)">
    <path class="flow" d="M-20,44 L200,4"><animateTransform attributeName="transform" type="translate" values="-40,0;220,0" dur="1.8s" repeatCount="indefinite"/></path>
    <path class="flow" d="M-20,44 L200,4"><animateTransform attributeName="transform" type="translate" values="-90,0;170,0" dur="1.8s" begin="0.6s" repeatCount="indefinite"/></path>
    <path class="flow" d="M-20,44 L200,4"><animateTransform attributeName="transform" type="translate" values="-140,0;120,0" dur="1.8s" begin="1.2s" repeatCount="indefinite"/></path>
  </g>
  <circle cx="26" cy="28" r="13" fill="#182742"/>
  <text x="26" y="33" text-anchor="middle" font-family="Georgia,serif" font-weight="700" font-size="13" fill="#4DA6FF">in</text>
  <text x="48" y="33" class="lbl">LinkedIn</text>

  <rect class="pill" x="204" y="4" width="152" height="48" rx="24"/>
  <g clip-path="url(#f2)">
    <path class="flow" d="M180,44 L400,4"><animateTransform attributeName="transform" type="translate" values="40,0;-220,0" dur="1.8s" repeatCount="indefinite"/></path>
    <path class="flow" d="M180,44 L400,4"><animateTransform attributeName="transform" type="translate" values="90,0;-170,0" dur="1.8s" begin="0.6s" repeatCount="indefinite"/></path>
  </g>
  <circle cx="226" cy="28" r="13" fill="#182742"/>
  <path d="M219,23 L226,29 L233,23" stroke="#FFC145" stroke-width="1.6" fill="none" stroke-linecap="round"/>
  <rect x="219" y="21" width="14" height="10" rx="1.4" fill="none" stroke="#FFC145" stroke-width="1.3"/>
  <text x="248" y="33" class="lbl">Email</text>

  <rect class="pill" x="374" y="4" width="182" height="48" rx="24"/>
  <g clip-path="url(#f3)">
    <path class="flow" d="M350,44 L570,4"><animateTransform attributeName="transform" type="translate" values="-40,0;220,0" dur="1.8s" begin="0.3s" repeatCount="indefinite"/></path>
    <path class="flow" d="M350,44 L570,4"><animateTransform attributeName="transform" type="translate" values="-90,0;170,0" dur="1.8s" begin="0.9s" repeatCount="indefinite"/></path>
  </g>
  <circle cx="396" cy="28" r="13" fill="#182742"/>
  <circle cx="396" cy="28" r="8" fill="none" stroke="#4DA6FF" stroke-width="1.4"/>
  <ellipse cx="396" cy="28" rx="3.4" ry="8" fill="none" stroke="#4DA6FF" stroke-width="1"/>
  <text x="418" y="33" class="lbl">Portfolio</text>

  <rect class="pill" x="574" y="4" width="152" height="48" rx="24"/>
  <g clip-path="url(#f4)">
    <path class="flow" d="M550,44 L770,4"><animateTransform attributeName="transform" type="translate" values="40,0;-220,0" dur="1.8s" begin="0.4s" repeatCount="indefinite"/></path>
    <path class="flow" d="M550,44 L770,4"><animateTransform attributeName="transform" type="translate" values="90,0;-170,0" dur="1.8s" begin="1s" repeatCount="indefinite"/></path>
  </g>
  <circle cx="596" cy="28" r="13" fill="#182742"/>
  <text x="596" y="32" text-anchor="middle" font-family="'JetBrains Mono',monospace" font-weight="700" font-size="10" fill="#4DA6FF">&lt;/&gt;</text>
  <text x="618" y="33" class="lbl">GitHub</text>
</svg>
