<svg width="1200" height="500" viewBox="0 0 1200 500" xmlns="http://www.w3.org/2000/svg">
  <defs>
    <linearGradient id="skillBg" x1="0" y1="0" x2="1" y2="1">
      <stop offset="0%" stop-color="#0b0e16"/>
      <stop offset="100%" stop-color="#0e1220"/>
    </linearGradient>
    <clipPath id="skillFrame">
      <rect x="0" y="0" width="1200" height="500" rx="18"/>
    </clipPath>
    <filter id="softGlow" x="-50%" y="-50%" width="200%" height="200%">
      <feGaussianBlur stdDeviation="8"/>
    </filter>
  </defs>

  <g clip-path="url(#skillFrame)">
    <rect width="1200" height="500" fill="url(#skillBg)"/>

    <text x="40" y="46" font-family="'JetBrains Mono','Fira Code',Consolas,monospace" font-size="12" letter-spacing="3" fill="#7d8894">SKILL SIGNALS</text>
    <line x1="40" y1="58" x2="200" y2="58" stroke="#8b7cf6" stroke-width="2"/>

    <g font-family="'JetBrains Mono','Fira Code',Consolas,monospace">

      <g transform="translate(40,80)" opacity="0">
        <animate attributeName="opacity" values="0;1" dur="0.4s" begin="0.0s" fill="freeze"/>
        <circle cx="30" cy="20" r="26" fill="#8b7cf6" opacity="0.18" filter="url(#softGlow)"/>
        <rect width="265" height="110" rx="16" fill="#ffffff" fill-opacity="0.03" stroke="#ffffff" stroke-opacity="0.08"/>
        <rect width="265" height="4" rx="2" fill="#8b7cf6"/>
        <rect x="195" y="16" width="52" height="18" rx="9" fill="#1c2531"/>
        <text x="221" y="29" font-size="9" fill="#7d8894" text-anchor="middle">LANG</text>
        <text x="18" y="40" font-size="22" font-weight="700" fill="#8b7cf6">PYTH</text>
        <text x="18" y="62" font-size="13" fill="#c7cfd8">Python</text>
        <polyline points="18,96 55,92 92,94 129,80 166,84 203,66 240,70" fill="none" stroke="#8b7cf6" stroke-width="2" stroke-dasharray="320" stroke-dashoffset="320">
          <animate attributeName="stroke-dashoffset" values="320;0" dur="1.1s" begin="0.35s" fill="freeze"/>
        </polyline>
        <circle cx="240" cy="70" r="3" fill="#8b7cf6" opacity="0">
          <animate attributeName="opacity" values="0;1" dur="0.2s" begin="1.45s" fill="freeze"/>
          <animate attributeName="r" values="3;5;3" dur="1.6s" begin="1.5s" repeatCount="indefinite"/>
        </circle>
      </g>

      <g transform="translate(325,80)" opacity="0">
        <animate attributeName="opacity" values="0;1" dur="0.4s" begin="0.08s" fill="freeze"/>
        <circle cx="30" cy="20" r="26" fill="#8b7cf6" opacity="0.18" filter="url(#softGlow)"/>
        <rect width="265" height="110" rx="16" fill="#ffffff" fill-opacity="0.03" stroke="#ffffff" stroke-opacity="0.08"/>
        <rect width="265" height="4" rx="2" fill="#8b7cf6"/>
        <rect x="195" y="16" width="52" height="18" rx="9" fill="#1c2531"/>
        <text x="221" y="29" font-size="9" fill="#7d8894" text-anchor="middle">LANG</text>
        <text x="18" y="40" font-size="22" font-weight="700" fill="#8b7cf6">SQL</text>
        <text x="18" y="62" font-size="13" fill="#c7cfd8">SQL / Querying</text>
        <polyline points="18,94 55,90 92,92 129,76 166,80 203,62 240,64" fill="none" stroke="#8b7cf6" stroke-width="2" stroke-dasharray="320" stroke-dashoffset="320">
          <animate attributeName="stroke-dashoffset" values="320;0" dur="1.1s" begin="0.43s" fill="freeze"/>
        </polyline>
        <circle cx="240" cy="64" r="3" fill="#8b7cf6" opacity="0">
          <animate attributeName="opacity" values="0;1" dur="0.2s" begin="1.53s" fill="freeze"/>
          <animate attributeName="r" values="3;5;3" dur="1.6s" begin="1.58s" repeatCount="indefinite"/>
        </circle>
      </g>

      <g transform="translate(610,80)" opacity="0">
        <animate attributeName="opacity" values="0;1" dur="0.4s" begin="0.16s" fill="freeze"/>
        <circle cx="30" cy="20" r="26" fill="#8b7cf6" opacity="0.18" filter="url(#softGlow)"/>
        <rect width="265" height="110" rx="16" fill="#ffffff" fill-opacity="0.03" stroke="#ffffff" stroke-opacity="0.08"/>
        <rect width="265" height="4" rx="2" fill="#8b7cf6"/>
        <rect x="195" y="16" width="52" height="18" rx="9" fill="#1c2531"/>
        <text x="221" y="29" font-size="9" fill="#7d8894" text-anchor="middle">LANG</text>
        <text x="18" y="40" font-size="22" font-weight="700" fill="#8b7cf6">R</text>
        <text x="18" y="62" font-size="13" fill="#c7cfd8">R</text>
        <polyline points="18,98 55,96 92,94 129,90 166,88 203,78 240,80" fill="none" stroke="#8b7cf6" stroke-width="2" stroke-dasharray="320" stroke-dashoffset="320">
          <animate attributeName="stroke-dashoffset" values="320;0" dur="1.1s" begin="0.51s" fill="freeze"/>
        </polyline>
        <circle cx="240" cy="80" r="3" fill="#8b7cf6" opacity="0">
          <animate attributeName="opacity" values="0;1" dur="0.2s" begin="1.61s" fill="freeze"/>
          <animate attributeName="r" values="3;5;3" dur="1.6s" begin="1.66s" repeatCount="indefinite"/>
        </circle>
      </g>

      <g transform="translate(895,80)" opacity="0">
        <animate attributeName="opacity" values="0;1" dur="0.4s" begin="0.24s" fill="freeze"/>
        <circle cx="30" cy="20" r="26" fill="#2ee6a6" opacity="0.18" filter="url(#softGlow)"/>
        <rect width="265" height="110" rx="16" fill="#ffffff" fill-opacity="0.03" stroke="#ffffff" stroke-opacity="0.08"/>
        <rect width="265" height="4" rx="2" fill="#2ee6a6"/>
        <rect x="195" y="16" width="52" height="18" rx="9" fill="#1c2531"/>
        <text x="221" y="29" font-size="9" fill="#7d8894" text-anchor="middle">DATA</text>
        <text x="18" y="40" font-size="22" font-weight="700" fill="#2ee6a6">PNDS</text>
        <text x="18" y="62" font-size="13" fill="#c7cfd8">Pandas</text>
        <polyline points="18,94 55,88 92,90 129,74 166,76 203,60 240,62" fill="none" stroke="#2ee6a6" stroke-width="2" stroke-dasharray="320" stroke-dashoffset="320">
          <animate attributeName="stroke-dashoffset" values="320;0" dur="1.1s" begin="0.59s" fill="freeze"/>
        </polyline>
        <circle cx="240" cy="62" r="3" fill="#2ee6a6" opacity="0">
          <animate attributeName="opacity" values="0;1" dur="0.2s" begin="1.69s" fill="freeze"/>
          <animate attributeName="r" values="3;5;3" dur="1.6s" begin="1.74s" repeatCount="indefinite"/>
        </circle>
      </g>

      <g transform="translate(40,210)" opacity="0">
        <animate attributeName="opacity" values="0;1" dur="0.4s" begin="0.32s" fill="freeze"/>
        <circle cx="30" cy="20" r="26" fill="#2ee6a6" opacity="0.18" filter="url(#softGlow)"/>
        <rect width="265" height="110" rx="16" fill="#ffffff" fill-opacity="0.03" stroke="#ffffff" stroke-opacity="0.08"/>
        <rect width="265" height="4" rx="2" fill="#2ee6a6"/>
        <rect x="195" y="16" width="52" height="18" rx="9" fill="#1c2531"/>
        <text x="221" y="29" font-size="9" fill="#7d8894" text-anchor="middle">DATA</text>
        <text x="18" y="40" font-size="22" font-weight="700" fill="#2ee6a6">NPY</text>
        <text x="18" y="62" font-size="13" fill="#c7cfd8">NumPy</text>
        <polyline points="18,96 55,94 92,88 129,90 166,78 203,80 240,68" fill="none" stroke="#2ee6a6" stroke-width="2" stroke-dasharray="320" stroke-dashoffset="320">
          <animate attributeName="stroke-dashoffset" values="320;0" dur="1.1s" begin="0.67s" fill="freeze"/>
        </polyline>
        <circle cx="240" cy="68" r="3" fill="#2ee6a6" opacity="0">
          <animate attributeName="opacity" values="0;1" dur="0.2s" begin="1.77s" fill="freeze"/>
          <animate attributeName="r" values="3;5;3" dur="1.6s" begin="1.82s" repeatCount="indefinite"/>
        </circle>
      </g>

      <g transform="translate(325,210)" opacity="0">
        <animate attributeName="opacity" values="0;1" dur="0.4s" begin="0.4s" fill="freeze"/>
        <circle cx="30" cy="20" r="26" fill="#2ee6a6" opacity="0.18" filter="url(#softGlow)"/>
        <rect width="265" height="110" rx="16" fill="#ffffff" fill-opacity="0.03" stroke="#ffffff" stroke-opacity="0.08"/>
        <rect width="265" height="4" rx="2" fill="#2ee6a6"/>
        <rect x="195" y="16" width="52" height="18" rx="9" fill="#1c2531"/>
        <text x="221" y="29" font-size="9" fill="#7d8894" text-anchor="middle">DATA</text>
        <text x="18" y="40" font-size="22" font-weight="700" fill="#2ee6a6">SKLN</text>
        <text x="18" y="62" font-size="13" fill="#c7cfd8">scikit-learn</text>
        <polyline points="18,100 55,96 92,98 129,92 166,94 203,84 240,86" fill="none" stroke="#2ee6a6" stroke-width="2" stroke-dasharray="320" stroke-dashoffset="320">
          <animate attributeName="stroke-dashoffset" values="320;0" dur="1.1s" begin="0.75s" fill="freeze"/>
        </polyline>
        <circle cx="240" cy="86" r="3" fill="#2ee6a6" opacity="0">
          <animate attributeName="opacity" values="0;1" dur="0.2s" begin="1.85s" fill="freeze"/>
          <animate attributeName="r" values="3;5;3" dur="1.6s" begin="1.9s" repeatCount="indefinite"/>
        </circle>
      </g>

      <g transform="translate(610,210)" opacity="0">
        <animate attributeName="opacity" values="0;1" dur="0.4s" begin="0.48s" fill="freeze"/>
        <circle cx="30" cy="20" r="26" fill="#2ee6a6" opacity="0.18" filter="url(#softGlow)"/>
        <rect width="265" height="110" rx="16" fill="#ffffff" fill-opacity="0.03" stroke="#ffffff" stroke-opacity="0.08"/>
        <rect width="265" height="4" rx="2" fill="#2ee6a6"/>
        <rect x="195" y="16" width="52" height="18" rx="9" fill="#1c2531"/>
        <text x="221" y="29" font-size="9" fill="#7d8894" text-anchor="middle">DATA</text>
        <text x="18" y="40" font-size="22" font-weight="700" fill="#2ee6a6">STAT</text>
        <text x="18" y="62" font-size="13" fill="#c7cfd8">Statistics</text>
        <polyline points="18,94 55,90 92,92 129,78 166,82 203,66 240,70" fill="none" stroke="#2ee6a6" stroke-width="2" stroke-dasharray="320" stroke-dashoffset="320">
          <animate attributeName="stroke-dashoffset" values="320;0" dur="1.1s" begin="0.83s" fill="freeze"/>
        </polyline>
        <circle cx="240" cy="70" r="3" fill="#2ee6a6" opacity="0">
          <animate attributeName="opacity" values="0;1" dur="0.2s" begin="1.93s" fill="freeze"/>
          <animate attributeName="r" values="3;5;3" dur="1.6s" begin="1.98s" repeatCount="indefinite"/>
        </circle>
      </g>

      <g transform="translate(895,210)" opacity="0">
        <animate attributeName="opacity" values="0;1" dur="0.4s" begin="0.56s" fill="freeze"/>
        <circle cx="30" cy="20" r="26" fill="#ffd166" opacity="0.18" filter="url(#softGlow)"/>
        <rect width="265" height="110" rx="16" fill="#ffffff" fill-opacity="0.03" stroke="#ffffff" stroke-opacity="0.08"/>
        <rect width="265" height="4" rx="2" fill="#ffd166"/>
        <rect x="195" y="16" width="52" height="18" rx="9" fill="#1c2531"/>
        <text x="221" y="29" font-size="9" fill="#7d8894" text-anchor="middle">VIZ</text>
        <text x="18" y="40" font-size="22" font-weight="700" fill="#ffd166">XLS</text>
        <text x="18" y="62" font-size="13" fill="#c7cfd8">Excel</text>
        <polyline points="18,92 55,94 92,84 129,88 166,74 203,78 240,62" fill="none" stroke="#ffd166" stroke-width="2" stroke-dasharray="320" stroke-dashoffset="320">
          <animate attributeName="stroke-dashoffset" values="320;0" dur="1.1s" begin="0.91s" fill="freeze"/>
        </polyline>
        <circle cx="240" cy="62" r="3" fill="#ffd166" opacity="0">
          <animate attributeName="opacity" values="0;1" dur="0.2s" begin="2.01s" fill="freeze"/>
          <animate attributeName="r" values="3;5;3" dur="1.6s" begin="2.06s" repeatCount="indefinite"/>
        </circle>
      </g>

      <g transform="translate(40,340)" opacity="0">
        <animate attributeName="opacity" values="0;1" dur="0.4s" begin="0.64s" fill="freeze"/>
        <circle cx="30" cy="20" r="26" fill="#ffd166" opacity="0.18" filter="url(#softGlow)"/>
        <rect width="265" height="110" rx="16" fill="#ffffff" fill-opacity="0.03" stroke="#ffffff" stroke-opacity="0.08"/>
        <rect width="265" height="4" rx="2" fill="#ffd166"/>
        <rect x="195" y="16" width="52" height="18" rx="9" fill="#1c2531"/>
        <text x="221" y="29" font-size="9" fill="#7d8894" text-anchor="middle">VIZ</text>
        <text x="18" y="40" font-size="22" font-weight="700" fill="#ffd166">PBI</text>
        <text x="18" y="62" font-size="13" fill="#c7cfd8">Power BI</text>
        <polyline points="18,98 55,94 92,96 129,86 166,90 203,76 240,80" fill="none" stroke="#ffd166" stroke-width="2" stroke-dasharray="320" stroke-dashoffset="320">
          <animate attributeName="stroke-dashoffset" values="320;0" dur="1.1s" begin="0.99s" fill="freeze"/>
        </polyline>
        <circle cx="240" cy="80" r="3" fill="#ffd166" opacity="0">
          <animate attributeName="opacity" values="0;1" dur="0.2s" begin="2.09s" fill="freeze"/>
          <animate attributeName="r" values="3;5;3" dur="1.6s" begin="2.14s" repeatCount="indefinite"/>
        </circle>
      </g>

      <g transform="translate(325,340)" opacity="0">
        <animate attributeName="opacity" values="0;1" dur="0.4s" begin="0.72s" fill="freeze"/>
        <circle cx="30" cy="20" r="26" fill="#ffd166" opacity="0.18" filter="url(#softGlow)"/>
        <rect width="265" height="110" rx="16" fill="#ffffff" fill-opacity="0.03" stroke="#ffffff" stroke-opacity="0.08"/>
        <rect width="265" height="4" rx="2" fill="#ffd166"/>
        <rect x="195" y="16" width="52" height="18" rx="9" fill="#1c2531"/>
        <text x="221" y="29" font-size="9" fill="#7d8894" text-anchor="middle">VIZ</text>
        <text x="18" y="40" font-size="22" font-weight="700" fill="#ffd166">TBLU</text>
        <text x="18" y="62" font-size="13" fill="#c7cfd8">Tableau</text>
        <polyline points="18,96 55,92 92,94 129,84 166,86 203,72 240,74" fill="none" stroke="#ffd166" stroke-width="2" stroke-dasharray="320" stroke-dashoffset="320">
          <animate attributeName="stroke-dashoffset" values="320;0" dur="1.1s" begin="1.07s" fill="freeze"/>
        </polyline>
        <circle cx="240" cy="74" r="3" fill="#ffd166" opacity="0">
          <animate attributeName="opacity" values="0;1" dur="0.2s" begin="2.17s" fill="freeze"/>
          <animate attributeName="r" values="3;5;3" dur="1.6s" begin="2.22s" repeatCount="indefinite"/>
        </circle>
      </g>

      <g transform="translate(610,340)" opacity="0">
        <animate attributeName="opacity" values="0;1" dur="0.4s" begin="0.8s" fill="freeze"/>
        <circle cx="30" cy="20" r="26" fill="#ff7ac6" opacity="0.18" filter="url(#softGlow)"/>
        <rect width="265" height="110" rx="16" fill="#ffffff" fill-opacity="0.03" stroke="#ffffff" stroke-opacity="0.08"/>
        <rect width="265" height="4" rx="2" fill="#ff7ac6"/>
        <rect x="195" y="16" width="52" height="18" rx="9" fill="#1c2531"/>
        <text x="221" y="29" font-size="9" fill="#7d8894" text-anchor="middle">FIN</text>
        <text x="18" y="40" font-size="21" font-weight="700" fill="#ff7ac6">YFAPI</text>
        <text x="18" y="62" font-size="12.5" fill="#c7cfd8">Yahoo Finance API</text>
        <polyline points="18,94 55,90 92,92 129,80 166,84 203,68 240,72" fill="none" stroke="#ff7ac6" stroke-width="2" stroke-dasharray="320" stroke-dashoffset="320">
          <animate attributeName="stroke-dashoffset" values="320;0" dur="1.1s" begin="1.15s" fill="freeze"/>
        </polyline>
        <circle cx="240" cy="72" r="3" fill="#ff7ac6" opacity="0">
          <animate attributeName="opacity" values="0;1" dur="0.2s" begin="2.25s" fill="freeze"/>
          <animate attributeName="r" values="3;5;3" dur="1.6s" begin="2.3s" repeatCount="indefinite"/>
        </circle>
      </g>

      <g transform="translate(895,340)" opacity="0">
        <animate attributeName="opacity" values="0;1" dur="0.4s" begin="0.88s" fill="freeze"/>
        <circle cx="30" cy="20" r="26" fill="#ff7ac6" opacity="0.18" filter="url(#softGlow)"/>
        <rect width="265" height="110" rx="16" fill="#ffffff" fill-opacity="0.03" stroke="#ffffff" stroke-opacity="0.08"/>
        <rect width="265" height="4" rx="2" fill="#ff7ac6"/>
        <rect x="195" y="16" width="52" height="18" rx="9" fill="#1c2531"/>
        <text x="221" y="29" font-size="9" fill="#7d8894" text-anchor="middle">FIN</text>
        <text x="18" y="40" font-size="21" font-weight="700" fill="#ff7ac6">XLFM</text>
        <text x="18" y="62" font-size="12.5" fill="#c7cfd8">Financial Modeling</text>
        <polyline points="18,96 55,94 92,88 129,90 166,78 203,80 240,66" fill="none" stroke="#ff7ac6" stroke-width="2" stroke-dasharray="320" stroke-dashoffset="320">
          <animate attributeName="stroke-dashoffset" values="320;0" dur="1.1s" begin="1.23s" fill="freeze"/>
        </polyline>
        <circle cx="240" cy="66" r="3" fill="#ff7ac6" opacity="0">
          <animate attributeName="opacity" values="0;1" dur="0.2s" begin="2.33s" fill="freeze"/>
          <animate attributeName="r" values="3;5;3" dur="1.6s" begin="2.38s" repeatCount="indefinite"/>
        </circle>
      </g>

      <g font-size="12" fill="#7d8894">
        <circle cx="330" cy="470" r="5" fill="#8b7cf6"/><text x="342" y="474">Languages</text>
        <circle cx="450" cy="470" r="5" fill="#2ee6a6"/><text x="462" y="474">Data &amp; Analysis</text>
        <circle cx="610" cy="470" r="5" fill="#ffd166"/><text x="622" y="474">Visualization</text>
        <circle cx="750" cy="470" r="5" fill="#ff7ac6"/><text x="762" y="474">Finance &amp; Market Data</text>
      </g>
    </g>
  </g>

  <rect x="0.5" y="0.5" width="1199" height="499" rx="18" fill="none" stroke="#1c2531" stroke-width="1"/>
</svg>
